<svg width="48" height="49" viewBox="0 0 48 49" fill="none" xmlns="http://www.w3.org/2000/svg">
<path fill-rule="evenodd" clip-rule="evenodd" d="M24 48.5C30.3652 48.5 36.4697 45.9714 40.9706 41.4706C45.4714 36.9697 48 30.8652 48 24.5C48 18.1348 45.4714 12.0303 40.9706 7.52944C36.4697 3.02856 30.3652 0.5 24 0.5C17.6348 0.5 11.5303 3.02856 7.02944 7.52944C2.52856 12.0303 0 18.1348 0 24.5C0 30.8652 2.52856 36.9697 7.02944 41.4706C11.5303 45.9714 17.6348 48.5 24 48.5ZM22.665 16.004C22.2132 15.7026 21.688 15.5294 21.1455 15.5031C20.6031 15.4767 20.0636 15.5981 19.5847 15.8544C19.1058 16.1106 18.7055 16.492 18.4264 16.958C18.1473 17.4239 17.9999 17.9569 18 18.5V30.5C17.9999 31.0431 18.1473 31.5761 18.4264 32.042C18.7055 32.508 19.1058 32.8894 19.5847 33.1456C20.0636 33.4019 20.6031 33.5233 21.1455 33.4969C21.688 33.4706 22.2132 33.2974 22.665 32.996L31.665 26.996C32.0759 26.722 32.4128 26.3509 32.6458 25.9155C32.8788 25.48 33.0007 24.9938 33.0007 24.5C33.0007 24.0062 32.8788 23.52 32.6458 23.0845C32.4128 22.6491 32.0759 22.278 31.665 22.004L22.665 16.004Z" fill="url(#paint0_linear_2_949)"/>
<defs>
<linearGradient id="paint0_linear_2_949" x1="24" y1="13.7414" x2="24" y2="32.569" gradientUnits="userSpaceOnUse">
<stop stop-color="#6742CE"/>
<stop offset="1" stop-color="#182BA5"/>
</linearGradient>
</defs>
</svg>
