<svg width="286" height="49" viewBox="0 0 286 49" fill="none" xmlns="http://www.w3.org/2000/svg">
<path fill-rule="evenodd" clip-rule="evenodd" d="M24 48.5C30.3652 48.5 36.4697 45.9714 40.9706 41.4706C45.4714 36.9697 48 30.8652 48 24.5C48 18.1348 45.4714 12.0303 40.9706 7.52944C36.4697 3.02856 30.3652 0.5 24 0.5C17.6348 0.5 11.5303 3.02856 7.02944 7.52944C2.52856 12.0303 0 18.1348 0 24.5C0 30.8652 2.52856 36.9697 7.02944 41.4706C11.5303 45.9714 17.6348 48.5 24 48.5ZM22.665 16.004C22.2132 15.7026 21.688 15.5294 21.1455 15.5031C20.6031 15.4767 20.0636 15.5981 19.5847 15.8544C19.1058 16.1106 18.7055 16.492 18.4264 16.958C18.1473 17.4239 17.9999 17.9569 18 18.5V30.5C17.9999 31.0431 18.1473 31.5761 18.4264 32.042C18.7055 32.508 19.1058 32.8894 19.5847 33.1456C20.0636 33.4019 20.6031 33.5233 21.1455 33.4969C21.688 33.4706 22.2132 33.2974 22.665 32.996L31.665 26.996C32.0759 26.722 32.4128 26.3509 32.6458 25.9155C32.8788 25.48 33.0007 24.9938 33.0007 24.5C33.0007 24.0062 32.8788 23.52 32.6458 23.0845C32.4128 22.6491 32.0759 22.278 31.665 22.004L22.665 16.004Z" fill="url(#paint0_linear_2_949)"/>
<path d="M62.0312 47.5H54.7812C54.6146 47.5 54.5312 47.3958 54.5312 47.1875L54.6562 3.21875C54.6562 3.05208 54.7396 2.96875 54.9062 2.96875H62.7188C62.8854 2.96875 63.0312 3.05208 63.1562 3.21875L69 11.6562L74.8125 3.21875C74.9375 3.05208 75.0938 2.96875 75.2812 2.96875H83.125C83.3125 2.96875 83.4062 3.05208 83.4062 3.21875L83.5312 47.1875C83.5312 47.3958 83.4479 47.5 83.2812 47.5H76.0312C75.8646 47.5 75.7812 47.3958 75.7812 47.1875L75.7188 14.5312L69 24.2812L62.3438 14.5312L62.2812 47.1875C62.2812 47.3958 62.1979 47.5 62.0312 47.5ZM100.75 48.125C98.4792 48.125 96.3854 47.5417 94.4688 46.375C92.5729 45.2083 91.0417 43.6562 89.875 41.7188C88.7292 39.7604 88.1562 37.6146 88.1562 35.2812L88.2188 15C88.2188 12.625 88.7917 10.4896 89.9375 8.59375C91.0625 6.67708 92.5833 5.14583 94.5 4C96.4167 2.83333 98.5 2.25 100.75 2.25C103.083 2.25 105.177 2.82292 107.031 3.96875C108.906 5.11458 110.406 6.65625 111.531 8.59375C112.677 10.5104 113.25 12.6458 113.25 15L113.312 35.2812C113.312 37.6146 112.75 39.75 111.625 41.6875C110.479 43.6458 108.958 45.2083 107.062 46.375C105.167 47.5417 103.062 48.125 100.75 48.125ZM100.75 40.4062C102.042 40.4062 103.167 39.8854 104.125 38.8438C105.083 37.7812 105.562 36.5938 105.562 35.2812L105.5 15C105.5 13.5833 105.052 12.3854 104.156 11.4062C103.26 10.4271 102.125 9.9375 100.75 9.9375C99.4375 9.9375 98.3125 10.4167 97.375 11.375C96.4375 12.3333 95.9688 13.5417 95.9688 15V35.2812C95.9688 36.6771 96.4375 37.8854 97.375 38.9062C98.3125 39.9062 99.4375 40.4062 100.75 40.4062ZM131.781 47.5H124.031C123.844 47.5 123.74 47.3958 123.719 47.1875L114.875 3.21875C114.833 3.05208 114.917 2.96875 115.125 2.96875H122.375C122.542 2.96875 122.646 3.05208 122.688 3.21875L127.938 32.5312L133.062 3.21875C133.104 3.05208 133.208 2.96875 133.375 2.96875H140.531C140.76 2.96875 140.844 3.05208 140.781 3.21875L132.094 47.1875C132.073 47.3958 131.969 47.5 131.781 47.5ZM152.094 47.5H144.844C144.635 47.5 144.531 47.3958 144.531 47.1875L144.594 3.21875C144.594 3.05208 144.677 2.96875 144.844 2.96875H152.031C152.198 2.96875 152.281 3.05208 152.281 3.21875L152.344 47.1875C152.344 47.3958 152.26 47.5 152.094 47.5ZM178.906 47.5H158.219C158.052 47.5 157.969 47.3958 157.969 47.1875L158.031 3.21875C158.031 3.05208 158.115 2.96875 158.281 2.96875H178.844C179.01 2.96875 179.094 3.07292 179.094 3.28125V10.4375C179.094 10.6042 179.01 10.6875 178.844 10.6875H165.719V20.6875H178.844C179.01 20.6875 179.094 20.7708 179.094 20.9375L179.156 28.1875C179.156 28.3542 179.073 28.4375 178.906 28.4375H165.719V39.625H178.906C179.073 39.625 179.156 39.7292 179.156 39.9375V47.25C179.156 47.4167 179.073 47.5 178.906 47.5ZM192.344 47.5H185.156C184.948 47.5 184.844 47.3958 184.844 47.1875L184.969 3.21875C184.969 3.05208 185.052 2.96875 185.219 2.96875H197.531C201.448 2.96875 204.542 4.16667 206.812 6.5625C209.104 8.9375 210.25 12.1771 210.25 16.2812C210.25 19.2812 209.656 21.8958 208.469 24.125C207.26 26.3333 205.698 28.0417 203.781 29.25C201.865 30.4583 199.781 31.0625 197.531 31.0625H192.656V47.1875C192.656 47.3958 192.552 47.5 192.344 47.5ZM197.531 10.5625L192.656 10.625V23.3125H197.531C198.885 23.3125 200.062 22.6667 201.062 21.375C202.062 20.0625 202.562 18.3646 202.562 16.2812C202.562 14.6146 202.115 13.25 201.219 12.1875C200.323 11.1042 199.094 10.5625 197.531 10.5625ZM235.031 47.5H214.344C214.177 47.5 214.094 47.3958 214.094 47.1875L214.156 3.28125C214.156 3.07292 214.26 2.96875 214.469 2.96875H221.594C221.802 2.96875 221.906 3.07292 221.906 3.28125L221.844 39.625H235.031C235.24 39.625 235.344 39.7292 235.344 39.9375V47.1875C235.344 47.3958 235.24 47.5 235.031 47.5ZM237.375 47.1875L245.312 3.21875C245.354 3.05208 245.458 2.96875 245.625 2.96875H254.906C255.073 2.96875 255.177 3.05208 255.219 3.21875L262.844 47.1875C262.865 47.3958 262.781 47.5 262.594 47.5H255.5C255.292 47.5 255.177 47.3958 255.156 47.1875L254.469 42.5H245.75L245.062 47.1875C245.042 47.3958 244.938 47.5 244.75 47.5H237.625C237.458 47.5 237.375 47.3958 237.375 47.1875ZM249.906 17.6875L247.031 35.6562H253.188L250.562 17.6875L250.188 15.3125L249.906 17.6875ZM275.688 47.5H268.344C268.198 47.5 268.125 47.4167 268.125 47.25L268.188 29.0625L259.625 3.21875C259.583 3.05208 259.646 2.96875 259.812 2.96875H266.938C267.146 2.96875 267.271 3.05208 267.312 3.21875L272.031 20.4375L276.844 3.21875C276.885 3.05208 276.99 2.96875 277.156 2.96875H284.344C284.51 2.96875 284.573 3.05208 284.531 3.21875L275.875 28.8125L275.938 47.25C275.938 47.4167 275.854 47.5 275.688 47.5Z" fill="url(#paint1_linear_2_949)"/>
<defs>
<linearGradient id="paint0_linear_2_949" x1="24" y1="13.7414" x2="24" y2="32.569" gradientUnits="userSpaceOnUse">
<stop stop-color="#6742CE"/>
<stop offset="1" stop-color="#182BA5"/>
</linearGradient>
<linearGradient id="paint1_linear_2_949" x1="169" y1="14.1897" x2="169" y2="32.2328" gradientUnits="userSpaceOnUse">
<stop stop-color="#6742CE"/>
<stop offset="1" stop-color="#182BA5"/>
</linearGradient>
</defs>
</svg>
